<svg xmlns="http://www.w3.org/2000/svg" width="1440" height="565" viewBox="0 0 1440 565" fill="none"><defs><path id="r" d="M1234.07 0.000482561L1216.38 6.03647C1119.3 39.1694 1119.7 176.611 1216.97 209.18L1235.56 215.405C1327.12 246.059 1327.16 375.54 1235.63 406.261L1178.48 425.444C1114.52 446.909 1108.47 534.991 1168.89 565V565" stroke="#364F6B" stroke-opacity="0.1" stroke-width="2" fill="none"/></defs><use href="#r" transform="translate(0.00,0)"/><use href="#r" transform="translate(-14.36,0)"/><use href="#r" transform="translate(-28.72,0)"/><use href="#r" transform="translate(-43.08,0)"/><use href="#r" transform="translate(-57.44,0)"/><use href="#r" transform="translate(-71.80,0)"/><use href="#r" transform="translate(-86.16,0)"/><use href="#r" transform="translate(-100.52,0)"/><use href="#r" transform="translate(-114.88,0)"/><use href="#r" transform="translate(-129.24,0)"/><use href="#r" transform="translate(-143.60,0)"/><use href="#r" transform="translate(-157.96,0)"/><use href="#r" transform="translate(-172.32,0)"/><use href="#r" transform="translate(-186.68,0)"/><use href="#r" transform="translate(-201.04,0)"/><use href="#r" transform="translate(-215.40,0)"/><use href="#r" transform="translate(-229.76,0)"/><use href="#r" transform="translate(-244.12,0)"/><use href="#r" transform="translate(-258.48,0)"/><use href="#r" transform="translate(-272.84,0)"/><use href="#r" transform="translate(-287.20,0)"/><use href="#r" transform="translate(-301.56,0)"/><use href="#r" transform="translate(-315.92,0)"/><use href="#r" transform="translate(-330.28,0)"/><use href="#r" transform="translate(-344.64,0)"/><use href="#r" transform="translate(-359.00,0)"/><use href="#r" transform="translate(-373.36,0)"/><use href="#r" transform="translate(-387.72,0)"/><use href="#r" transform="translate(-402.08,0)"/><use href="#r" transform="translate(-416.44,0)"/></svg>