<svg xmlns="http://www.w3.org/2000/svg" viewBox="0 0 600 600" fill="none"><circle cx="300" cy="300" r="18" fill="none" stroke="#364F6B" stroke-opacity="0.10" stroke-width="2"/><circle cx="300" cy="300" r="31" fill="none" stroke="#364F6B" stroke-opacity="0.10" stroke-width="2"/><circle cx="300" cy="300" r="44" fill="none" stroke="#364F6B" stroke-opacity="0.10" stroke-width="2"/><circle cx="300" cy="300" r="57" fill="none" stroke="#364F6B" stroke-opacity="0.10" stroke-width="2"/><circle cx="300" cy="300" r="70" fill="none" stroke="#364F6B" stroke-opacity="0.10" stroke-width="2"/><circle cx="300" cy="300" r="83" fill="none" stroke="#364F6B" stroke-opacity="0.10" stroke-width="2"/><circle cx="300" cy="300" r="96" fill="none" stroke="#364F6B" stroke-opacity="0.10" stroke-width="2"/><circle cx="300" cy="300" r="109" fill="none" stroke="#364F6B" stroke-opacity="0.10" stroke-width="2"/><circle cx="300" cy="300" r="122" fill="none" stroke="#364F6B" stroke-opacity="0.10" stroke-width="2"/><circle cx="300" cy="300" r="135" fill="none" stroke="#364F6B" stroke-opacity="0.10" stroke-width="2"/><circle cx="300" cy="300" r="148" fill="none" stroke="#364F6B" stroke-opacity="0.10" stroke-width="2"/><circle cx="300" cy="300" r="161" fill="none" stroke="#364F6B" stroke-opacity="0.10" stroke-width="2"/><circle cx="300" cy="300" r="174" fill="none" stroke="#364F6B" stroke-opacity="0.10" stroke-width="2"/><circle cx="300" cy="300" r="187" fill="none" stroke="#364F6B" stroke-opacity="0.10" stroke-width="2"/><circle cx="300" cy="300" r="200" fill="none" stroke="#364F6B" stroke-opacity="0.10" stroke-width="2"/><circle cx="300" cy="300" r="213" fill="none" stroke="#364F6B" stroke-opacity="0.10" stroke-width="2"/><circle cx="300" cy="300" r="226" fill="none" stroke="#364F6B" stroke-opacity="0.10" stroke-width="2"/><circle cx="300" cy="300" r="239" fill="none" stroke="#364F6B" stroke-opacity="0.10" stroke-width="2"/><circle cx="300" cy="300" r="252" fill="none" stroke="#364F6B" stroke-opacity="0.10" stroke-width="2"/><circle cx="300" cy="300" r="265" fill="none" stroke="#364F6B" stroke-opacity="0.10" stroke-width="2"/><circle cx="300" cy="300" r="278" fill="none" stroke="#364F6B" stroke-opacity="0.10" stroke-width="2"/><circle cx="300" cy="300" r="291" fill="none" stroke="#364F6B" stroke-opacity="0.10" stroke-width="2"/></svg>